<svg width="42" height="38" viewBox="0 0 42 38" fill="none" xmlns="http://www.w3.org/2000/svg">
<path d="M8.32917 8.33333L13.1417 0H20.8292L16.0167 8.33333H8.32917ZM20.8292 8.33333L25.6417 0H33.3292L28.5167 8.33333H20.8292ZM33.3292 8.33333L38.1417 0H39.6C40.7417 0 41.6667 0.927083 41.6667 2.06875V35.4312C41.6629 35.9784 41.444 36.502 41.0573 36.8891C40.6706 37.2762 40.1471 37.4956 39.6 37.5H2.06667C1.51836 37.4994 0.992702 37.2812 0.605186 36.8933C0.217671 36.5054 -2.78032e-07 35.9796 0 35.4312V2.06875C0.00381259 1.52162 0.222709 0.997953 0.609402 0.61087C0.996095 0.223787 1.51954 0.00436385 2.06667 0H8.32917L4.16667 7.20833V33.3333H37.5V8.33333H33.3292Z" fill="black"/>
</svg>
