<svg width="22" height="22" viewBox="0 0 22 22" fill="none" xmlns="http://www.w3.org/2000/svg">
<path d="M15.158 22V13.486H18.0094L18.436 10.1762H15.158V8.06422C15.158 7.106 15.4244 6.45211 16.7982 6.45211H18.5509V3.49189C17.7024 3.40187 16.8497 3.35821 15.9964 3.36111C13.4701 3.36111 11.7407 4.90356 11.7407 7.73667V10.1762H8.88311V13.486H11.7407V22H1.22222C0.898069 22 0.587192 21.8712 0.357981 21.642C0.128769 21.4128 0 21.1019 0 20.7778V1.22222C0 0.898069 0.128769 0.587192 0.357981 0.357981C0.587192 0.128769 0.898069 0 1.22222 0H20.7778C21.1019 0 21.4128 0.128769 21.642 0.357981C21.8712 0.587192 22 0.898069 22 1.22222V20.7778C22 21.1019 21.8712 21.4128 21.642 21.642C21.4128 21.8712 21.1019 22 20.7778 22H15.158Z" fill="#3456FF"/>
</svg>
