<svg width="44" height="42" viewBox="0 0 44 42" fill="none" xmlns="http://www.w3.org/2000/svg">
<path d="M33.3333 33.0896V29.1667L43.75 35.4167L33.3333 41.6667V37.3125C30.1488 36.8565 27.1352 35.5888 24.5823 33.6313C22.0294 31.6739 20.0231 29.0925 18.7563 26.1354L18.75 26.125L18.7437 26.1375C17.2981 29.5099 14.8947 32.384 11.8314 34.4037C8.76816 36.4235 5.17961 37.5 1.51042 37.5H0V33.3333H1.51042C4.36454 33.3333 7.15591 32.4957 9.53858 30.9244C11.9212 29.3531 13.7905 27.1172 14.9146 24.4938L16.4833 20.8333L14.9146 17.1729C13.7905 14.5495 11.9212 12.3136 9.53858 10.7423C7.15591 9.171 4.36454 8.33342 1.51042 8.33333H0V4.16667H1.51042C5.17984 4.16684 8.76856 5.2437 11.8319 7.26381C14.8952 9.28392 17.2984 12.1585 18.7437 15.5313L18.75 15.5417L18.7563 15.5292C20.0234 12.5725 22.0298 9.99155 24.5827 8.03446C27.1356 6.07738 30.1491 4.81 33.3333 4.35417V0L43.75 6.25L33.3333 12.5V8.57708C30.9727 9.01447 28.7565 10.0279 26.8816 11.5274C25.0067 13.0269 23.5309 14.9661 22.5854 17.1729L21.0167 20.8333L22.5854 24.4938C23.5309 26.7005 25.0067 28.6398 26.8816 30.1393C28.7565 31.6388 30.9727 32.6522 33.3333 33.0896Z" fill="black"/>
</svg>
