<svg width="22" height="22" viewBox="0 0 22 22" fill="none" xmlns="http://www.w3.org/2000/svg">
<path d="M21.9989 2.61164C21.175 3.0599 20.3012 3.3543 19.4065 3.48509C20.3495 2.79142 21.0553 1.69972 21.3924 0.413426C20.5074 1.06121 19.5371 1.51519 18.5258 1.76076C17.8465 0.866846 16.9461 0.273998 15.9646 0.0743819C14.9831 -0.125234 13.9755 0.0795672 13.0984 0.656946C12.2213 1.23433 11.5239 2.15193 11.1145 3.26711C10.7052 4.38229 10.6069 5.63257 10.8349 6.82356C9.04015 6.71292 7.2844 6.1393 5.68163 5.13994C4.07885 4.14057 2.66488 2.73781 1.5315 1.02271C1.13032 1.87021 0.919496 2.83362 0.920624 3.81429C0.920624 5.73905 1.71713 7.43948 2.92808 8.43505C2.21145 8.4073 1.51059 8.16927 0.883929 7.74081V7.80983C0.884145 9.09173 1.24481 10.3341 1.90476 11.3263C2.56472 12.3184 3.48335 12.9994 4.50491 13.2536C3.83965 13.4753 3.14211 13.508 2.46507 13.3492C2.75309 14.4526 3.31447 15.4176 4.0706 16.109C4.82672 16.8005 5.73974 17.1838 6.68181 17.2053C5.74551 18.1097 4.67346 18.7783 3.52695 19.1728C2.38044 19.5673 1.18195 19.68 0 19.5044C2.06325 21.1364 4.46508 22.0028 6.91817 22C15.2211 22 19.7616 13.5403 19.7616 6.20365C19.7616 5.96471 19.7562 5.72312 19.7475 5.48684C20.6313 4.70123 21.3941 3.72803 22 2.61297L21.9989 2.61164Z" fill="black"/>
</svg>
